<svg xmlns="http://www.w3.org/2000/svg" xmlns:xlink="http://www.w3.org/1999/xlink" width="100" zoomAndPan="magnify" viewBox="0 0 75 74.999997" height="100" preserveAspectRatio="xMidYMid meet" version="1.0"><defs><clipPath id="ff6191b442"><path d="M 12.71875 24.976562 L 58.46875 24.976562 L 58.46875 57.976562 L 12.71875 57.976562 Z M 12.71875 24.976562 " clip-rule="nonzero"/></clipPath></defs><g clip-path="url(#ff6191b442)"><path fill="#a8ba9a" d="M 54.511719 24.976562 L 16.675781 24.976562 C 14.5 24.976562 12.734375 26.738281 12.734375 28.90625 L 12.734375 54.046875 C 12.734375 56.214844 14.5 57.976562 16.675781 57.976562 L 54.511719 57.976562 C 56.6875 57.976562 58.453125 56.214844 58.453125 54.046875 L 58.453125 28.90625 C 58.453125 26.738281 56.6875 24.976562 54.511719 24.976562 Z M 54.511719 24.976562 " fill-opacity="1" fill-rule="nonzero"/><path fill="#616d69" d="M 58.453125 28.90625 C 58.453125 26.738281 56.6875 24.976562 54.511719 24.976562 L 16.675781 24.976562 C 14.5 24.976562 12.734375 26.738281 12.734375 28.90625 L 12.734375 54.046875 C 12.734375 55.117188 13.167969 56.082031 13.863281 56.789062 C 14.582031 57.519531 15.574219 57.976562 16.675781 57.976562 L 54.511719 57.976562 C 55.617188 57.976562 56.609375 57.519531 57.328125 56.796875 C 58.019531 56.082031 58.453125 55.117188 58.453125 54.046875 Z M 43.691406 39.921875 L 56.609375 27.828125 C 56.777344 28.160156 56.878906 28.519531 56.878906 28.90625 L 56.878906 54.046875 C 56.878906 54.347656 56.816406 54.628906 56.710938 54.898438 Z M 54.511719 26.546875 C 54.851562 26.546875 55.175781 26.617188 55.460938 26.753906 L 42.082031 39.269531 C 42.082031 39.269531 42.082031 39.269531 42.074219 39.269531 C 42.074219 39.269531 42.074219 39.277344 42.066406 39.277344 L 35.59375 45.34375 L 29.117188 39.277344 C 29.117188 39.277344 29.117188 39.269531 29.109375 39.269531 C 29.109375 39.269531 29.109375 39.269531 29.101562 39.269531 L 15.730469 26.753906 C 16.015625 26.617188 16.339844 26.546875 16.675781 26.546875 Z M 14.476562 54.898438 C 14.375 54.628906 14.3125 54.347656 14.3125 54.046875 L 14.3125 28.90625 C 14.3125 28.519531 14.414062 28.160156 14.582031 27.835938 L 27.5 39.929688 Z M 16.675781 56.40625 C 16.25 56.40625 15.863281 56.289062 15.519531 56.089844 L 28.652344 40.996094 L 35.050781 46.992188 C 35.199219 47.132812 35.398438 47.203125 35.585938 47.203125 C 35.777344 47.203125 35.972656 47.132812 36.125 46.992188 L 42.523438 40.996094 L 55.671875 56.089844 C 55.324219 56.289062 54.9375 56.40625 54.511719 56.40625 Z M 16.675781 56.40625 " fill-opacity="1" fill-rule="nonzero"/></g></svg>